<svg xmlns="http://www.w3.org/2000/svg" viewBox="0 0 69.68 40.29"><defs><style>.cls-1,.cls-2,.cls-3{fill:none;stroke:#ba8d74;stroke-miterlimit:10;}.cls-2{stroke-linecap:square;}.cls-3{stroke-linecap:round;}</style></defs><g id="圖層_2" data-name="圖層 2"><g id="圖層_1-2" data-name="圖層 1"><path class="cls-1" d="M17.8,6.67V5.5c0-2.9,3.13-5,7-5H43.25c3.87,0,8.59,2.09,10.8,5h0L66.92,16.33l0,0c4.45,5.87,2,15.85-4.78,15.85H57.53"/><line class="cls-1" x1="50.58" y1="32.2" x2="31.28" y2="32.2"/><path class="cls-1" d="M18.53,28.2a5.64,5.64,0,0,0,.76,2.17c1.1,1.39,2.77,1.8,5,1.89"/><ellipse class="cls-1" cx="54.06" cy="34.87" rx="4.15" ry="4.92"/><ellipse class="cls-1" cx="27.8" cy="34.87" rx="4.15" ry="4.92"/><line class="cls-2" x1="45.99" y1="1.09" x2="46.36" y2="31.61"/><path class="cls-2" d="M48.22,14.56l0-6.57c0-2.77,2.81-4,4.54-1.6l5.43,7.46c1,1.33-.4,2.93-2.12,2.89l-5.53-.12A2.36,2.36,0,0,1,48.22,14.56Z"/><line class="cls-3" x1="14.96" y1="6.67" x2="33.04" y2="6.67"/><line class="cls-3" x1="0.5" y1="17.33" x2="33.04" y2="17.33"/><line class="cls-3" x1="11.4" y1="27.98" x2="33.04" y2="27.98"/></g></g></svg>