<svg xmlns="http://www.w3.org/2000/svg" viewBox="0 0 52.49 51.59"><defs><style>.cls-1,.cls-4{fill:#ba8d74;}.cls-1{stroke:#fff;}.cls-1,.cls-2,.cls-3{stroke-miterlimit:10;}.cls-2,.cls-3{fill:none;stroke:#ba8d74;stroke-linecap:round;}.cls-3{stroke-width:1.5px;}</style></defs><g id="圖層_2" data-name="圖層 2"><g id="圖層_1-2" data-name="圖層 1"><path class="cls-1" d="M50.83,27.19H1.71c-1.11,0-1.53-1.3-.95-2.84L7.35,6.87a2.22,2.22,0,0,1,1.9-1.4H42.6a2.32,2.32,0,0,1,1.94,1.4l7.15,17.48C52.31,25.89,51.94,27.19,50.83,27.19Z"/><polyline class="cls-2" points="47.31 35.77 47.31 51.09 4.82 51.09 4.82 35.77"/><line class="cls-3" x1="11.32" y1="0.75" x2="40.87" y2="0.93"/><path class="cls-4" d="M1.35,26.16l13-.09c0,3.65-2.15,6.9-5.29,7.6-3.53.79-6.93-2-7.59-6.13A8,8,0,0,1,1.35,26.16Z"/><path class="cls-4" d="M13.43,26.16l12.7-.09c0,3.65-2.11,6.9-5.18,7.6-3.44.79-6.76-2-7.41-6.13A9.17,9.17,0,0,1,13.43,26.16Z"/><path class="cls-4" d="M38.2,26l13-.09c0,3.65-2.16,6.91-5.3,7.61-3.53.79-6.93-2-7.59-6.13A9.41,9.41,0,0,1,38.2,26Z"/><path class="cls-4" d="M26.06,26.16l13-.09c0,3.65-2.16,6.9-5.3,7.6-3.53.79-6.93-2-7.59-6.13A9.17,9.17,0,0,1,26.06,26.16Z"/></g></g></svg>