<svg xmlns="http://www.w3.org/2000/svg" viewBox="0 0 35.95 60.87"><defs><style>.cls-1,.cls-2{fill:none;stroke:#ba8d74;stroke-miterlimit:10;}.cls-2{stroke-linecap:round;}.cls-3{fill:#ba8d74;}</style></defs><g id="圖層_2" data-name="圖層 2"><g id="圖層_1-2" data-name="圖層 1"><line class="cls-1" x1="0.79" y1="8.29" x2="29.06" y2="8.1"/><line class="cls-1" x1="1.81" y1="54.84" x2="33.97" y2="54.84"/><line class="cls-2" x1="14.92" y1="58.46" x2="20.86" y2="58.46"/><line class="cls-2" x1="14.92" y1="5.17" x2="20.86" y2="5.17"/><ellipse class="cls-3" cx="23.01" cy="5.17" rx="0.56" ry="0.68"/><rect class="cls-1" x="0.5" y="0.5" width="34.95" height="59.87" rx="10.64"/><path class="cls-3" d="M15.41,36.36a3.27,3.27,0,0,0,3.87,1.78c2-.47,3-1.49,2.56-3.27-.33-1.35-1.22-2.12-4-2.2-3.14-.07-4.74-.7-5.26-2.82s.86-4,3.37-4.59c3.38-.8,4.87,1,5.33,2.25l-1.44.34a2.89,2.89,0,0,0-3.62-1.42c-2,.48-2.49,1.72-2.2,2.92s1.25,1.89,3.79,1.92c3.75.09,5,1.21,5.49,3.11.61,2.43-.79,4.25-3.82,4.95-2.76.63-4.77-.54-5.54-2.63Zm4.14,5L15.23,23.9l1.11-.26,4.31,17.45Z"/><ellipse class="cls-1" cx="17.89" cy="31.56" rx="11.88" ry="11.63"/></g></g></svg>