<svg xmlns="http://www.w3.org/2000/svg" viewBox="0 0 44.78 56"><defs><style>.cls-1,.cls-2{fill:#ba8d74;}.cls-2{stroke:#fff;}.cls-2,.cls-3{stroke-miterlimit:10;}.cls-3{fill:#fff;stroke:#ba8d74;stroke-linecap:round;}</style></defs><g id="圖層_2" data-name="圖層 2"><g id="圖層_1-2" data-name="圖層 1"><path class="cls-1" d="M37.85,56H7.59C.43,56-1.79,48.41,1.47,41.62l4.47-9.31a9.87,9.87,0,0,1,8.51-5.11H28.52a10.94,10.94,0,0,1,9,5.11l5.26,9.31C46.59,48.41,45,56,37.85,56Z"/><ellipse class="cls-2" cx="22.39" cy="13.85" rx="14.59" ry="13.35"/><path class="cls-1" d="M36.93,17.83l.12-6.4a3.2,3.2,0,0,1-.12,6.4Z"/><path class="cls-3" d="M38.55,17.42c0,1.76-.7,3.19-1.57,3.19"/><circle class="cls-1" cx="36.93" cy="21.2" r="1.26"/></g></g></svg>